<svg version="1.1" viewBox="0.0 0.0 100.0 100.0" fill="none" stroke="none" stroke-linecap="square" stroke-miterlimit="10" xmlns:xlink="http://www.w3.org/1999/xlink" xmlns="http://www.w3.org/2000/svg"><clipPath id="p.0"><path d="m0 0l100.0 0l0 100.0l-100.0 0l0 -100.0z" clip-rule="nonzero"/></clipPath><g clip-path="url(#p.0)"><path fill="#000" fill-opacity="0.0" d="m0 0l100.0 0l0 100.0l-100.0 0z" fill-rule="evenodd"/><path fill="#000" fill-opacity="0.0" d="m18.629921 20.55643l62.740158 0" fill-rule="evenodd"/><path stroke="#000" stroke-width="6.0" stroke-linejoin="round" stroke-linecap="butt" d="m18.629921 20.55643l62.740158 0" fill-rule="evenodd"/><path fill="#000" fill-opacity="0.0" d="m36.09449 16.929134l27.81102 0" fill-rule="evenodd"/><path stroke="#000" stroke-width="6.0" stroke-linejoin="round" stroke-linecap="butt" d="m36.09449 16.929134l27.81102 0" fill-rule="evenodd"/><path fill="#000" fill-opacity="0.0" d="m26.60105 21.28084l0 63.02362" fill-rule="evenodd"/><path stroke="#000" stroke-width="6.0" stroke-linejoin="round" stroke-linecap="butt" d="m26.60105 21.28084l0 63.02362" fill-rule="evenodd"/><path fill="#000" fill-opacity="0.0" d="m73.91863 22.007874l0 62.29921" fill-rule="evenodd"/><path stroke="#000" stroke-width="6.0" stroke-linejoin="round" stroke-linecap="butt" d="m73.91863 22.007874l0 62.29921" fill-rule="evenodd"/><path fill="#000" fill-opacity="0.0" d="m26.60105 82.3832l45.826767 0" fill-rule="evenodd"/><path stroke="#000" stroke-width="6.0" stroke-linejoin="round" stroke-linecap="butt" d="m26.60105 82.3832l45.826767 0" fill-rule="evenodd"/><path fill="#000" fill-opacity="0.0" d="m42.682415 29.76903l0 43.401573" fill-rule="evenodd"/><path stroke="#000" stroke-width="6.0" stroke-linejoin="round" stroke-linecap="butt" d="m42.682415 29.76903l0 43.401573" fill-rule="evenodd"/><path fill="#000" fill-opacity="0.0" d="m57.595802 29.76903l0 43.401573" fill-rule="evenodd"/><path stroke="#000" stroke-width="6.0" stroke-linejoin="round" stroke-linecap="butt" d="m57.595802 29.76903l0 43.401573" fill-rule="evenodd"/></g></svg>